<?xml version="1.0" encoding="utf-8"?>
<!-- Generator: Adobe Illustrator 27.0.0, SVG Export Plug-In . SVG Version: 6.00 Build 0)  -->
<svg version="1.1" id="Capa_1" xmlns="http://www.w3.org/2000/svg" xmlns:xlink="http://www.w3.org/1999/xlink" x="0px" y="0px"
	 viewBox="0 0 186.13 64.79" style="enable-background:new 0 0 186.13 64.79;" xml:space="preserve">
<style type="text/css">
	.st0{fill:#FFFFFF;}
	.st1{fill:#00AAD2;}
	.st2{fill:#BDD143;}
	.st3{fill:#00A151;}
	.st4{fill:#29338A;}
	.st5{fill:#1D2362;}
</style>
<g>
	<path class="st1" d="M64.83,29.28L53.58,22.8l-2.96,2.39l1.95,8.05l12.1,4.45C65.09,34.88,65.13,32.06,64.83,29.28z"/>
	<path class="st1" d="M36.48,19.03l-0.49-6.36l-17.3-9.96C12.81,5.32,7.65,9.67,4.07,15.47l23.65,8.67L36.48,19.03z"/>
	<path class="st2" d="M49.47,20.43l4.11,2.36l7.34-5.93c-1.69-3.06-3.88-5.87-6.52-8.29l-6.83,3.98L49.47,20.43z"/>
	<path class="st2" d="M37.13,27.59l-9.41-3.46L0,40.32c1.56,6.63,5.15,12.74,10.45,17.34l27.3-22.06L37.13,27.59z"/>
	<polygon class="st3" points="50.62,25.19 53.58,22.8 49.47,20.43 	"/>
	<polygon class="st3" points="27.72,24.14 37.13,27.59 36.48,19.03 	"/>
	<path class="st4" d="M50.62,25.19L37.75,35.6l2.24,29.19c6.75-1.67,12.96-5.47,17.53-11.04L50.62,25.19z"/>
	<path class="st4" d="M45.15,2.58C41.86,1.15,38.44,0.3,35.01,0l1.47,19.03l11.08-6.47L45.15,2.58z"/>
	<polygon class="st5" points="47.56,12.55 36.48,19.03 37.75,35.6 50.62,25.19 	"/>
	<g>
		<path class="st4" d="M108.01,5.01v23.37v4.55V41h-8.07h-2.93H89.2h-0.15c-1.88-0.06-3.75-0.38-5.56-0.93
			c-1.82-0.57-3.38-1.52-4.65-2.91c-0.8-0.86-1.44-1.71-1.91-2.54c-0.49-0.84-0.84-1.7-1.09-2.57c-0.25-0.88-0.41-1.81-0.48-2.79
			c-0.07-0.97-0.11-2.03-0.11-3.15V5.01h9.15v21.11c0,0.81,0.05,1.62,0.15,2.43c0.09,0.81,0.3,1.54,0.63,2.18
			c0.32,0.65,0.79,1.17,1.41,1.59c0.63,0.42,1.45,0.62,2.47,0.62h7.96h2.93v-4.55V5.01H108.01z"/>
		<path class="st4" d="M146.1,41h-10.54l-12.87-17.9h7.77c1.72,0,3.15-0.4,4.29-1.18c1.14-0.78,1.71-2.1,1.71-3.95
			c0-0.9-0.16-1.65-0.48-2.29c-0.32-0.62-0.75-1.13-1.3-1.5c-0.54-0.39-1.16-0.66-1.89-0.85c-0.72-0.18-1.48-0.26-2.28-0.26h-3.37
			h-5.22V41h-9.16V5.01h5.66h3.51h7.86c0.92,0,1.88,0.02,2.86,0.05c0.97,0.03,1.95,0.14,2.91,0.31c0.94,0.18,1.88,0.43,2.77,0.78
			c0.9,0.33,1.73,0.8,2.48,1.41c1.48,1.21,2.59,2.69,3.35,4.43c0.75,1.75,1.13,3.56,1.13,5.45c0,1.37-0.2,2.7-0.6,3.96
			c-0.4,1.26-0.98,2.41-1.75,3.41c-0.77,1.01-1.71,1.85-2.84,2.54c-1.12,0.69-2.38,1.14-3.78,1.37L146.1,41z"/>
		<path class="st4" d="M186.13,20.79c-0.08,5.28-0.47,9.79-3.68,14.3c-3.56,4.94-8.88,7.11-14.93,7.11
			c-11.39,0-19.31-7.74-19.31-19.11c0-11.76,7.98-19.49,19.65-19.49c7.44,0,13.2,3.36,16.32,10.13l-8.93,3.75
			c-1.29-3.46-4.03-5.77-7.82-5.77c-6.19,0-9.41,5.91-9.41,11.42c0,5.62,3.36,11.33,9.56,11.33c4.07,0,7.2-2.11,7.58-6.29h-7.68
			v-7.39H186.13z"/>
	</g>
	<g>
		<g>
			<path class="st1" d="M78.25,57.04c0.02,0.46,0.13,0.88,0.36,1.22c0.08,0.16,0.21,0.3,0.34,0.46c0.15,0.15,0.32,0.29,0.53,0.4
				c0.21,0.11,0.47,0.21,0.76,0.27c0.28,0.07,0.62,0.11,1,0.11c0.5,0,0.93-0.06,1.27-0.18c0.34-0.11,0.63-0.27,0.85-0.44
				c0.22-0.18,0.4-0.38,0.51-0.58c0.13-0.2,0.21-0.41,0.26-0.58c0.05-0.18,0.08-0.33,0.08-0.47c0.02-0.11,0.02-0.19,0.02-0.21V48.3
				h2.19v8.8c-0.05,0.87-0.26,1.63-0.66,2.3c-0.17,0.29-0.36,0.58-0.62,0.85c-0.26,0.27-0.56,0.51-0.94,0.73
				c-0.36,0.21-0.78,0.38-1.27,0.51c-0.49,0.14-1.06,0.2-1.71,0.2c-0.65,0-1.22-0.06-1.72-0.2c-0.49-0.13-0.92-0.3-1.28-0.52
				c-0.37-0.22-0.67-0.47-0.92-0.74c-0.25-0.28-0.45-0.57-0.62-0.86c-0.39-0.69-0.6-1.46-0.66-2.33V48.3h2.19V57.04z"/>
			<path class="st1" d="M89.05,48.3h4.37c0.81,0.04,1.54,0.22,2.18,0.54c0.28,0.14,0.54,0.32,0.8,0.53c0.26,0.21,0.5,0.46,0.7,0.77
				c0.2,0.31,0.36,0.67,0.49,1.08c0.13,0.42,0.19,0.9,0.19,1.44c0.02,0.54-0.05,1.06-0.22,1.56c-0.07,0.21-0.17,0.43-0.28,0.66
				c-0.11,0.22-0.26,0.44-0.44,0.65c-0.18,0.21-0.41,0.42-0.66,0.6c-0.25,0.2-0.56,0.36-0.91,0.52l3.6,4.77h-2.73l-3.27-4.37h-1.65
				v4.37h-2.18V48.3z M91.23,54.85h2.19c0.4-0.02,0.77-0.1,1.09-0.27c0.27-0.14,0.52-0.35,0.75-0.65c0.23-0.29,0.34-0.72,0.34-1.27
				c0-0.27-0.03-0.51-0.09-0.72c-0.06-0.21-0.15-0.39-0.26-0.53c-0.11-0.16-0.22-0.28-0.36-0.39c-0.13-0.11-0.26-0.2-0.39-0.27
				c-0.32-0.16-0.7-0.25-1.09-0.28h-2.19V54.85z"/>
			<path class="st1" d="M110.81,60.19c-0.34,0.28-0.73,0.54-1.17,0.76c-0.38,0.19-0.82,0.37-1.34,0.51
				c-0.52,0.15-1.11,0.23-1.77,0.23c-0.93,0-1.83-0.18-2.65-0.54c-0.83-0.36-1.55-0.83-2.17-1.46c-0.62-0.62-1.11-1.35-1.47-2.17
				c-0.36-0.83-0.54-1.72-0.54-2.66c0-0.94,0.18-1.83,0.54-2.65c0.36-0.83,0.85-1.56,1.47-2.18c0.62-0.62,1.34-1.1,2.17-1.47
				c0.83-0.35,1.72-0.54,2.65-0.54c0.63,0,1.21,0.07,1.72,0.2c0.52,0.13,0.99,0.3,1.41,0.53c0.43,0.22,0.81,0.47,1.13,0.75
				c0.33,0.28,0.62,0.56,0.86,0.84c0.58,0.68,1.03,1.46,1.35,2.31h-2.36c-0.26-0.45-0.58-0.86-0.98-1.23
				c-0.33-0.29-0.76-0.57-1.27-0.83c-0.52-0.26-1.13-0.39-1.86-0.39c-0.63,0-1.24,0.12-1.8,0.37c-0.56,0.23-1.06,0.57-1.48,0.98
				c-0.42,0.42-0.75,0.92-0.99,1.48c-0.24,0.56-0.36,1.17-0.36,1.8c0,0.64,0.12,1.24,0.36,1.8c0.24,0.57,0.57,1.07,0.99,1.48
				c0.42,0.42,0.92,0.75,1.48,1c0.57,0.24,1.17,0.36,1.8,0.36c0.45,0,0.87-0.05,1.25-0.16c0.38-0.09,0.71-0.23,1-0.41
				c0.29-0.17,0.55-0.35,0.77-0.57c0.23-0.2,0.43-0.43,0.6-0.65c0.4-0.51,0.69-1.11,0.88-1.77h-4.51v-2.18h6.47v7.65h-2.19V60.19z"
				/>
			<path class="st1" d="M115.43,48.3h9.78v2.18h-7.59v3.29h5.47v2.18h-5.47v3.28h7.59v2.19h-9.78V48.3z"/>
			<path class="st1" d="M127.65,48.3h1.97l7.33,9.26V48.3h2.19v13.12h-1.98l-7.32-9.27v9.27h-2.19V48.3z"/>
			<path class="st1" d="M154.39,57.04c-0.27,0.87-0.67,1.64-1.22,2.33c-0.24,0.29-0.51,0.57-0.82,0.86
				c-0.31,0.27-0.67,0.52-1.08,0.74c-0.4,0.22-0.86,0.4-1.37,0.52c-0.51,0.14-1.08,0.2-1.71,0.2c-0.94,0-1.82-0.18-2.65-0.54
				c-0.83-0.36-1.55-0.83-2.17-1.46c-0.62-0.62-1.11-1.35-1.47-2.17c-0.36-0.83-0.54-1.72-0.54-2.66c0-0.94,0.18-1.83,0.54-2.65
				c0.36-0.83,0.85-1.56,1.47-2.18c0.62-0.62,1.34-1.1,2.17-1.47c0.83-0.35,1.72-0.54,2.65-0.54c0.63,0,1.2,0.07,1.71,0.2
				c0.51,0.13,0.97,0.3,1.37,0.53c0.41,0.22,0.77,0.47,1.08,0.75c0.31,0.28,0.58,0.56,0.82,0.84c0.54,0.68,0.95,1.46,1.22,2.31
				h-2.37c-0.21-0.45-0.49-0.86-0.84-1.23c-0.29-0.29-0.69-0.57-1.19-0.83c-0.49-0.26-1.1-0.39-1.81-0.39
				c-0.63,0-1.24,0.12-1.8,0.37c-0.57,0.23-1.07,0.57-1.48,0.98c-0.42,0.42-0.75,0.92-0.99,1.48c-0.25,0.56-0.36,1.17-0.36,1.8
				c0,0.64,0.12,1.24,0.36,1.8c0.24,0.57,0.57,1.07,0.99,1.48c0.42,0.42,0.91,0.75,1.48,1c0.57,0.24,1.17,0.36,1.8,0.36
				c0.72,0,1.33-0.14,1.82-0.39c0.49-0.26,0.89-0.53,1.18-0.86c0.34-0.34,0.62-0.76,0.84-1.22H154.39z"/>
			<path class="st1" d="M157.13,48.3h2.19v13.12h-2.19V48.3z"/>
			<path class="st1" d="M160.28,61.42l4.65-13.12h2.19l4.64,13.12h-2.46l-0.79-2.19h-4.98l-0.8,2.19H160.28z M166.02,52.25
				l-1.72,4.78h3.44L166.02,52.25z"/>
			<path class="st1" d="M181.08,51.98c0-0.21-0.03-0.41-0.11-0.56c-0.07-0.17-0.17-0.32-0.29-0.45c-0.13-0.13-0.26-0.22-0.42-0.31
				c-0.15-0.08-0.31-0.16-0.47-0.22c-0.39-0.13-0.82-0.21-1.29-0.23c-0.49,0.02-0.92,0.1-1.3,0.23c-0.16,0.06-0.32,0.14-0.48,0.22
				c-0.16,0.09-0.3,0.19-0.42,0.31c-0.13,0.13-0.22,0.28-0.29,0.45c-0.07,0.16-0.11,0.36-0.11,0.56c0,0.22,0.04,0.42,0.11,0.58
				c0.07,0.17,0.16,0.32,0.29,0.44c0.12,0.13,0.25,0.22,0.42,0.3c0.15,0.09,0.32,0.17,0.48,0.23c0.38,0.13,0.82,0.21,1.3,0.23
				c0.62,0,1.18,0.05,1.66,0.17c0.48,0.12,0.9,0.27,1.25,0.46c0.36,0.19,0.66,0.4,0.9,0.64c0.24,0.24,0.45,0.48,0.6,0.72
				c0.38,0.57,0.6,1.23,0.64,1.97c-0.05,0.75-0.27,1.42-0.64,1.99c-0.15,0.24-0.36,0.49-0.6,0.72c-0.24,0.24-0.54,0.45-0.9,0.64
				c-0.35,0.19-0.77,0.34-1.25,0.45c-0.48,0.11-1.04,0.17-1.66,0.17c-0.64,0-1.2-0.05-1.67-0.17c-0.48-0.11-0.89-0.26-1.24-0.45
				c-0.36-0.19-0.66-0.4-0.9-0.64c-0.24-0.23-0.44-0.48-0.61-0.72c-0.37-0.57-0.59-1.24-0.64-1.99h2.19c0,0.23,0.04,0.44,0.12,0.62
				c0.07,0.18,0.19,0.33,0.32,0.46c0.14,0.13,0.29,0.24,0.45,0.32c0.17,0.08,0.34,0.15,0.53,0.2c0.42,0.13,0.89,0.19,1.45,0.19
				c0.53,0,1.01-0.06,1.43-0.19c0.18-0.05,0.36-0.11,0.53-0.2c0.18-0.08,0.33-0.2,0.46-0.32c0.14-0.12,0.24-0.28,0.32-0.46
				c0.08-0.18,0.13-0.39,0.13-0.62c0-0.23-0.04-0.44-0.13-0.61c-0.08-0.18-0.19-0.32-0.32-0.46c-0.14-0.13-0.29-0.24-0.46-0.32
				c-0.17-0.08-0.35-0.16-0.53-0.21c-0.42-0.12-0.9-0.18-1.43-0.18c-0.6,0-1.13-0.05-1.58-0.17c-0.46-0.11-0.86-0.26-1.19-0.45
				c-0.34-0.19-0.63-0.4-0.86-0.64c-0.22-0.24-0.42-0.48-0.57-0.72c-0.34-0.58-0.54-1.24-0.59-1.99c0.05-0.73,0.25-1.39,0.59-1.97
				c0.15-0.24,0.35-0.49,0.57-0.72c0.23-0.24,0.52-0.45,0.86-0.64c0.33-0.19,0.73-0.34,1.19-0.45c0.45-0.12,0.98-0.18,1.58-0.18
				c0.59,0,1.12,0.06,1.58,0.18c0.45,0.11,0.84,0.26,1.19,0.45c0.34,0.19,0.62,0.4,0.85,0.64c0.23,0.23,0.42,0.48,0.58,0.72
				c0.34,0.58,0.53,1.24,0.59,1.97H181.08z"/>
		</g>
	</g>
</g>
</svg>
